<?xml version="1.0" encoding="UTF-8" standalone="no"?>
<svg
   xmlns:dc="http://purl.org/dc/elements/1.1/"
   xmlns:cc="http://creativecommons.org/ns#"
   xmlns:rdf="http://www.w3.org/1999/02/22-rdf-syntax-ns#"
   xmlns:svg="http://www.w3.org/2000/svg"
   xmlns="http://www.w3.org/2000/svg"
   viewBox="0 0 636.98877 367.94"
   height="367.94"
   width="636.98877"
   xml:space="preserve"
   version="1.1"
   id="svg2"><metadata
     id="metadata8"><rdf:RDF><cc:Work
         rdf:about=""><dc:format>image/svg+xml</dc:format><dc:type
           rdf:resource="http://purl.org/dc/dcmitype/StillImage" /><dc:title></dc:title></cc:Work></rdf:RDF></metadata><defs
     id="defs6"><clipPath
       id="clipPath46"
       clipPathUnits="userSpaceOnUse"><path
         id="path48"
         d="m 424.97461,291.40515 56.69362,0 0,-217.70329 -56.69362,0 0,217.70329 z" /></clipPath><clipPath
       id="clipPath62"
       clipPathUnits="userSpaceOnUse"><path
         id="path64"
         d="m -7.93706,130.39548 417.03754,0 0,72.56776 -417.03754,0 0,-72.56776 z" /></clipPath><clipPath
       id="clipPath74"
       clipPathUnits="userSpaceOnUse"><path
         id="path76"
         d="m -7.93706,89.576 417.03754,0 0,-72.56776 -417.03754,0 0,72.56776 z" /></clipPath></defs><g
     transform="matrix(1.25,0,0,-1.25,0,367.94)"
     id="g10"><g
       transform="translate(17.933,-7.045)"
       id="g12"><g
         id="g14"><g
           id="g16"><g
             id="g18"><path
               id="path20"
               style="fill:none;stroke:#404040;stroke-width:15.94042969;stroke-linecap:square;stroke-linejoin:miter;stroke-miterlimit:10;stroke-dasharray:none;stroke-opacity:1"
               d="M 0,226.77448 0,283.4681" /></g><g
             id="g22"><path
               id="path24"
               style="fill:none;stroke:#404040;stroke-width:15.94042969;stroke-linecap:square;stroke-linejoin:miter;stroke-miterlimit:10;stroke-dasharray:none;stroke-opacity:1"
               d="m 0,170.08086 0,56.69362 c 0,31.31141 25.38219,56.69362 56.69362,56.69362 20.25228,0 38.97253,-10.80828 49.09823,-28.34682" /></g><g
             id="g26"><path
               id="path28"
               style="fill:none;stroke:#404040;stroke-width:15.94042969;stroke-linecap:square;stroke-linejoin:miter;stroke-miterlimit:10;stroke-dasharray:none;stroke-opacity:1"
               d="m 145.13551,237.60306 0,45.86504" /></g><g
             id="g30"><path
               id="path32"
               style="fill:none;stroke:#404040;stroke-width:15.94042969;stroke-linecap:square;stroke-linejoin:miter;stroke-miterlimit:10;stroke-dasharray:none;stroke-opacity:1"
               d="m 236.86557,170.08086 0,67.5222" /></g><g
             id="g34"><path
               id="path36"
               style="fill:none;stroke:#404040;stroke-width:15.94042969;stroke-linecap:square;stroke-linejoin:miter;stroke-miterlimit:10;stroke-dasharray:none;stroke-opacity:1"
               d="m 145.13551,170.08086 0,67.5222 c 0,25.33087 20.53415,45.86502 45.86502,45.86502 25.33087,0 45.86502,-20.53415 45.86502,-45.86502 0,25.33087 20.53415,45.86502 45.86503,45.86502 25.33088,0 45.86503,-20.53415 45.86503,-45.86502 l 3e-5,-67.5222" /></g><g
             id="g38"><path
               id="path40"
               style="fill:none;stroke:#404040;stroke-width:15.94042969;stroke-linecap:square;stroke-linejoin:miter;stroke-miterlimit:10;stroke-dasharray:none;stroke-opacity:1"
               d="m 360.34393,226.77448 c 0,31.31141 25.38221,56.69362 56.69362,56.69362 31.31143,0 56.69362,-25.38221 56.69362,-56.69362" /></g><g
             id="g42"><g
               clip-path="url(#clipPath46)"
               id="g44"><g
                 id="g50"><path
                   id="path52"
                   style="fill:none;stroke:#404040;stroke-width:15.94042969;stroke-linecap:square;stroke-linejoin:miter;stroke-miterlimit:10;stroke-dasharray:none;stroke-opacity:1"
                   d="m 417.03755,138.33255 c 31.31143,0 56.69362,25.3822 56.69362,56.69362" /></g><g
                 id="g54"><path
                   id="path56"
                   style="fill:none;stroke:#404040;stroke-width:15.94042969;stroke-linecap:square;stroke-linejoin:miter;stroke-miterlimit:10;stroke-dasharray:none;stroke-opacity:1"
                   d="m 473.73117,283.4681 0,-145.13555 c 0,-31.31142 -25.38219,-56.69362 -56.69362,-56.69362" /></g></g></g><g
             id="g58"><g
               clip-path="url(#clipPath62)"
               id="g60"><g
                 id="g66"><path
                   id="path68"
                   style="fill:none;stroke:#a0a0a0;stroke-width:15.94042969;stroke-linecap:square;stroke-linejoin:miter;stroke-miterlimit:10;stroke-dasharray:none;stroke-opacity:1"
                   d="m 0,138.33255 417.03755,0 c -31.31141,0 -56.69362,25.3822 -56.69362,56.69362" /></g></g></g><g
             id="g70"><g
               clip-path="url(#clipPath74)"
               id="g72"><g
                 id="g78"><path
                   id="path80"
                   style="fill:none;stroke:#a0a0a0;stroke-width:15.94042969;stroke-linecap:square;stroke-linejoin:miter;stroke-miterlimit:10;stroke-dasharray:none;stroke-opacity:1"
                   d="m 417.03755,81.63893 -432.91168,0 c 31.31142,0 56.6936,-25.38219 56.6936,-56.69362" /></g></g></g></g></g></g></g></svg>